@startuml
title 基于GitHub的实验管理平台--类图
abstract class users {
    <b>user_id</b> （用户ID）
    name (用户真实姓名）
    github_username (用户GitHub账号）
    update_date (用户GitHub账号修改日期）
    password (用户密码）
    disable (用户是否禁用）
}
class teachers{
    <b>teacher_id</b> （老师工号）
    contact_info(老师联系方式)
}
class administrator{
    <b>admin_id</b> （管理员账号）
    contact_info(管理员联系方式)
}
class students{
    <b>student_id</b> （学号）
    result_sum(成绩汇总）
    contact_info(学生联系方式)
}
class semesters{
    <b>semesters_id</b>（学期序号）
    semesters_name(学期名称)
    start_date(开始时间)
    end_date(结束时间)
    if_current(是否当前学期)
    if_elective(当前能否选课)
}
class lessons{
    <b>lesson_id</b>（课程代码）
    lesson_name(课程名称)
    if_electived(当前课程能否被选)
}
class tests {
    <b>test_id</b>（实验ID）
    test_name(实验名称)
    test_aim(实验目的)
    test_surrounding(实验环境)
    test_content(实验内容)
    test_step(实验步骤)
    closing_date(提交截止日期)
    class_id(所属班级号)
}
class score_item{
    <b>score_item_id</b>（评分项ID）
    score_item_content(评分项)
    score_item_weight(评分项权重)
    teacher_id(所属老师)
}
note top:评分项属于老师所有，老师管理的评分项应用到老师的所有实验
class student_course{
    <b>course_id</b>（上课ID）
    student_id(学号)
    class_id(班级号)
}
class classes{
    <b>class_id</b>（班级号）
    teacher_id(选课老师工号)
    lesson_id(老师选取课程的ID)
    semester_id(学期序号)
}

class score{
    <b>score_id</b>（成绩ID）
    <b>course_id</b>（上课ID）
    <b>test_id</b>（实验ID）
    score(分数)
    score_detail(详细分数项)
    comment(评语)
    update_date (评改日期)
}
note top:详细分数项保存为字符串“评分项1：分数1+评分项2:分数2+...”

classes "0..1 "<--"1..*" teachers
classes " 1 "<-right-"1..*" lessons

classes " * "--> " 1 " semesters
classes " 1 "<--" * " tests
classes " 1 "<-down-" 1..* " student_course
students " 0..1 "<--" 1..* " student_course

score " *..1 "-->" 0..1 " student_course
score " 0..1 "<--" 1..* " tests

teachers " 1 "<-right"1..*" score_item


users <|- students
users <|-- teachers
users <|-left- administrator








@enduml